<?xml version="1.0" encoding="utf-8"?>
<!-- Generator: Adobe Illustrator 27.3.1, SVG Export Plug-In . SVG Version: 6.00 Build 0)  -->
<svg version="1.1" id="_レイヤー_2" xmlns="http://www.w3.org/2000/svg" xmlns:xlink="http://www.w3.org/1999/xlink" x="0px"
	 y="0px" viewBox="0 0 102.2 85.1" style="enable-background:new 0 0 102.2 85.1;" xml:space="preserve">
<g id="_レイヤー_1-2">
	<path d="M43.7,85.1c-0.7,0-1.4-0.3-2-0.8L0,42.6L41.7,0.8c1.1-1.1,2.9-1.1,4,0s1.1,2.9,0,4L7.9,42.6l37.8,37.8c1.1,1.1,1.1,2.9,0,4
		C45.2,84.9,44.5,85.1,43.7,85.1L43.7,85.1z"/>
	<path d="M99.4,45.4H4c-1.5,0-2.8-1.3-2.8-2.8s1.3-2.8,2.8-2.8h95.4c1.6,0,2.8,1.3,2.8,2.8S101,45.4,99.4,45.4L99.4,45.4z"/>
</g>
</svg>
