<?xml version="1.0" encoding="UTF-8"?><svg id="_レイヤー_2" xmlns="http://www.w3.org/2000/svg" viewBox="0 0 61 55.66"><g id="design"><path d="m60.4,54.9c-.54,0-1.78,0-3.35-.49-2.33-.76-2.7-3.79-2.92-5.73l-3.62-33.21c-.11-1.03-.27-1.46-.65-1.46s-.6.38-.81.87l-16.07,33.23c-.78-3.17-4.34-16.04-12.53-25.89,4.87-4.49,6.54-8.49,6.54-12.49,0-3.73-2.38-6.38-3.73-7.36C20.39.32,16.77,0,13.36,0c-1.68,0-5.79.16-6.38.16-.27,0-3.68-.16-6.11-.16C.27,0,0,.11,0,.43c0,.22.22.32.43.32.49,0,1.41.05,1.84.16,1.78.38,2.22,1.24,2.33,3.08.11,1.73.11,3.24.11,11.68v9.52c0,5.19,0,9.46-.27,11.74-.22,1.57-.49,2.76-1.57,2.97-.49.11-1.14.22-1.62.22-.32,0-.43.16-.43.32,0,.32.27.43.87.43,1.62,0,5.03-.16,5.08-.16.27,0,3.68.16,6.65.16.59,0,.87-.16.87-.43,0-.16-.11-.32-.43-.32-.49,0-1.68-.11-2.43-.22-1.62-.22-1.95-1.41-2.11-2.97-.27-2.27-.27-6.54-.27-11.74v-1.3c0-.27.11-.43.38-.43l6.65.11c.32,0,.49.11.7.32,0,0,7.61,6.58,13.68,29.16.35,1.01,1.3,2.49,1.68,2.49.49,0,.65-.49,1.78-2.87l13.41-28.45,2.6,28.23c.11.97.16,1.78-.22,1.95-.27.11-.38.16-.38.38,0,.27.27.43,1.51.54,2,.16,8.17.32,9.36.32.65,0,.81-.11.81-.43,0-.27-.32-.32-.6-.32ZM19.15,20.88c-1.24.87-2.76,1.03-4.06,1.03-2.38,0-4.87-.38-5.68-.87-.27-.16-.38-.38-.38-.65V2.7c0-.32.16-.54.43-.65.54-.16,2-.32,3.62-.32,5.79,0,9.36,4.06,9.36,10.82,0,4.11-1.41,7.03-3.3,8.33Z"/></g></svg>