<?xml version="1.0" encoding="UTF-8"?><svg id="_レイヤー_2" xmlns="http://www.w3.org/2000/svg" viewBox="0 0 32 29.2"><g id="design"><path d="m31.69,28.8c-.28,0-.94,0-1.76-.26-1.22-.4-1.42-1.99-1.53-3.01l-1.9-17.42c-.06-.54-.14-.77-.34-.77s-.31.2-.43.45l-8.43,17.43c-.41-1.66-2.27-8.41-6.57-13.58,2.55-2.35,3.43-4.45,3.43-6.55,0-1.96-1.25-3.35-1.96-3.86-1.5-1.08-3.4-1.25-5.19-1.25-.88,0-3.04.09-3.35.09-.14,0-1.93-.09-3.21-.09-.31,0-.45.06-.45.23,0,.11.11.17.23.17.26,0,.74.03.96.09.94.2,1.16.65,1.22,1.62.06.91.06,1.7.06,6.13v4.99c0,2.72,0,4.97-.14,6.16-.11.82-.26,1.45-.82,1.56-.26.06-.6.11-.85.11-.17,0-.23.09-.23.17,0,.17.14.23.45.23.85,0,2.64-.09,2.67-.09.14,0,1.93.09,3.49.09.31,0,.45-.09.45-.23,0-.09-.06-.17-.23-.17-.26,0-.88-.06-1.28-.11-.85-.11-1.02-.74-1.11-1.56-.14-1.19-.14-3.43-.14-6.16v-.68c0-.14.06-.23.2-.23l3.49.06c.17,0,.26.06.37.17,0,0,3.99,3.45,7.17,15.3.18.53.68,1.31.88,1.31.26,0,.34-.26.94-1.5l7.04-14.92,1.36,14.81c.06.51.09.94-.11,1.02-.14.06-.2.09-.2.2,0,.14.14.23.79.28,1.05.09,4.28.17,4.91.17.34,0,.43-.06.43-.23,0-.14-.17-.17-.31-.17ZM10.04,10.95c-.65.45-1.45.54-2.13.54-1.25,0-2.55-.2-2.98-.45-.14-.09-.2-.2-.2-.34V1.42c0-.17.09-.28.23-.34.28-.09,1.05-.17,1.9-.17,3.04,0,4.91,2.13,4.91,5.67,0,2.16-.74,3.69-1.73,4.37Z"/></g></svg>